<svg width="16" height="17" viewBox="0 0 16 17" fill="none" xmlns="http://www.w3.org/2000/svg">
<path d="M8 3.77109V13.7711" stroke="#30323D" stroke-linecap="round" stroke-linejoin="round"/>
<path d="M5.16669 5.77109H3.66669" stroke="#E63946" stroke-linecap="round" stroke-linejoin="round"/>
<path d="M5.66669 7.77109H3.66669" stroke="#E63946" stroke-linecap="round" stroke-linejoin="round"/>
<path d="M14.6667 11.2711V3.22444C14.6667 2.42444 14.0134 1.83111 13.22 1.89777H13.18C11.78 2.01777 9.65337 2.73111 8.46671 3.47777L8.35337 3.55111C8.16004 3.67111 7.84004 3.67111 7.64671 3.55111L7.48004 3.45111C6.29337 2.71111 4.17337 2.00444 2.77337 1.89111C1.98004 1.82444 1.33337 2.42444 1.33337 3.21777V11.2711C1.33337 11.9111 1.85337 12.5111 2.49337 12.5911L2.68671 12.6178C4.13337 12.8111 6.36671 13.5444 7.64671 14.2444L7.67337 14.2578C7.85337 14.3578 8.14004 14.3578 8.31337 14.2578C9.59337 13.5511 11.8334 12.8111 13.2867 12.6178L13.5067 12.5911C14.1467 12.5111 14.6667 11.9111 14.6667 11.2711Z" stroke="#30323D" stroke-linecap="round" stroke-linejoin="round"/>
</svg>
