<svg width="16" height="17" viewBox="0 0 16 17" fill="none" xmlns="http://www.w3.org/2000/svg">
<path d="M14.6668 6.77775V8.77776C14.6668 11.4444 13.3334 12.7778 10.6667 12.7778H10.3334C10.1267 12.7778 9.92674 12.8778 9.80007 13.0444L8.80007 14.3778C8.36007 14.9645 7.64006 14.9645 7.20006 14.3778L6.20006 13.0444C6.09339 12.8978 5.84672 12.7778 5.66672 12.7778H5.33339C2.66671 12.7778 1.33337 12.1111 1.33337 8.77776V5.44441C1.33337 2.77774 2.66671 1.4444 5.33339 1.4444H9.3334" stroke="#30323D" stroke-miterlimit="10" stroke-linecap="round" stroke-linejoin="round"/>
<path d="M13.0001 4.77774C13.9206 4.77774 14.6668 4.03155 14.6668 3.11107C14.6668 2.19059 13.9206 1.4444 13.0001 1.4444C12.0796 1.4444 11.3334 2.19059 11.3334 3.11107C11.3334 4.03155 12.0796 4.77774 13.0001 4.77774Z" stroke="#30323D" stroke-linecap="round" stroke-linejoin="round"/>
<path d="M10.6644 7.44442H10.6704" stroke="#37B76C" stroke-width="1.25" stroke-linecap="round" stroke-linejoin="round"/>
<path d="M7.99703 7.44442H8.00302" stroke="#2BB8D6" stroke-width="1.25" stroke-linecap="round" stroke-linejoin="round"/>
<path d="M5.32973 7.44442H5.33572" stroke="#FFBA08" stroke-width="1.25" stroke-linecap="round" stroke-linejoin="round"/>
</svg>
