<svg width="24" height="24" viewBox="0 0 24 24" fill="none" xmlns="http://www.w3.org/2000/svg">
<path d="M13.87 3.20017C13.56 3.11017 13.24 3.04017 12.91 3.00017C11.95 2.88017 11.03 2.95017 10.17 3.20017C10.46 2.46017 11.18 1.94017 12.02 1.94017C12.86 1.94017 13.58 2.46017 13.87 3.20017Z" stroke="#30323D" stroke-width="1.5" stroke-miterlimit="10" stroke-linecap="round" stroke-linejoin="round"/>
<path d="M15.02 19.0599C15.02 20.7099 13.67 22.0599 12.02 22.0599C11.2 22.0599 10.44 21.7199 9.90002 21.1799C9.36002 20.6399 9.02002 19.8799 9.02002 19.0599" stroke="#30323D" stroke-width="1.5" stroke-miterlimit="10"/>
<path d="M16.5729 3.93637C15.3705 2.83442 13.7706 2.16003 12.02 2.16003C8.29583 2.16003 5.27005 5.18582 5.27005 8.91003V11.8C5.27005 12.0147 5.22147 12.3287 5.12862 12.6632C5.03606 12.9966 4.9161 13.2906 4.8066 13.4747L4.80584 13.476L3.65752 15.3832C3.19649 16.1494 3.10017 17.0092 3.38297 17.773C3.66543 18.5358 4.29719 19.1253 5.1396 19.4104L5.14238 19.4114C9.60626 20.9028 14.4226 20.9029 18.8866 19.4118C20.5548 18.8595 21.2787 16.8934 20.3732 15.3842L19.2265 13.4798C19.1195 13.2924 19.0019 12.9974 18.9108 12.6654C18.8187 12.3294 18.77 12.0149 18.77 11.8V9.80744C18.2046 9.62489 17.6942 9.31988 17.27 8.92365V11.8C17.27 12.1952 17.3514 12.6507 17.4643 13.0621C17.5773 13.4744 17.7383 13.9019 17.9304 14.2348L17.9375 14.2469L19.0869 16.1559C19.5007 16.8462 19.1654 17.7398 18.4146 17.9879L18.4124 17.9887C14.2571 19.377 9.7745 19.3771 5.61916 17.9892C5.16239 17.8342 4.89955 17.549 4.78963 17.2521C4.67994 16.9559 4.69372 16.5706 4.94257 16.1569L6.09257 14.2469L6.09426 14.2441C6.29455 13.9081 6.45925 13.4776 6.57397 13.0644C6.68862 12.6514 6.77005 12.1954 6.77005 11.8V8.91003C6.77005 6.01425 9.12426 3.66003 12.02 3.66003C13.6214 3.66003 15.0622 4.38807 16.0275 5.52927C16.0952 4.95171 16.286 4.41177 16.5729 3.93637Z" fill="#30323D"/>
<path d="M19.5 9.00003C20.8807 9.00003 22 7.88074 22 6.50003C22 5.11932 20.8807 4.00003 19.5 4.00003C18.1193 4.00003 17 5.11932 17 6.50003C17 7.88074 18.1193 9.00003 19.5 9.00003Z" fill="#EE222E" stroke="white" stroke-linecap="round" stroke-linejoin="round"/>
</svg>
