<svg width="37" height="36" viewBox="0 0 37 36" fill="none" xmlns="http://www.w3.org/2000/svg">
<rect x="0.5" width="36" height="36" rx="4" fill="#9A9A9A" fill-opacity="0.2"/>
<path d="M21.0498 24.1583C20.5331 24.5083 19.8831 24.8 19.0915 25.0583L17.7748 25.4917C14.4665 26.5583 12.7248 25.6667 11.6498 22.3583L10.5831 19.0667C9.51646 15.7583 10.3998 14.0083 13.7081 12.9417L15.0248 12.5083C15.3665 12.4 15.6915 12.3083 15.9998 12.25C15.7498 12.7583 15.5498 13.375 15.3831 14.0833L14.5665 17.575C13.7498 21.0583 14.8248 22.775 18.2998 23.6L19.6998 23.9333C20.1831 24.05 20.6331 24.125 21.0498 24.1583Z" stroke="#30323D" stroke-width="1.25" stroke-linecap="round" stroke-linejoin="round"/>
<path d="M26.55 16.7004L25.7333 20.1837C25.0333 23.1921 23.65 24.4087 21.05 24.1587C20.6333 24.1254 20.1833 24.0504 19.7 23.9337L18.3 23.6004C14.825 22.7754 13.75 21.0587 14.5667 17.5754L15.3833 14.0837C15.55 13.3754 15.75 12.7587 16 12.2504C16.975 10.2337 18.6333 9.69208 21.4167 10.3504L22.8083 10.6754C26.3 11.4921 27.3667 13.2171 26.55 16.7004Z" stroke="#30323D" stroke-width="1.25" stroke-linecap="round" stroke-linejoin="round"/>
<path d="M19.0332 15.1084L23.0749 16.1334" stroke="#2BB8D6" stroke-width="1.25" stroke-linecap="round" stroke-linejoin="round"/>
<path d="M18.2168 18.333L20.6335 18.9497" stroke="#2BB8D6" stroke-width="1.25" stroke-linecap="round" stroke-linejoin="round"/>
</svg>
