<svg width="16" height="17" viewBox="0 0 16 17" fill="none" xmlns="http://www.w3.org/2000/svg">
<path d="M5.33331 1.44427V3.44427" stroke="#30323D" stroke-miterlimit="10" stroke-linecap="round" stroke-linejoin="round"/>
<path d="M10.6667 1.44427V3.44427" stroke="#30323D" stroke-miterlimit="10" stroke-linecap="round" stroke-linejoin="round"/>
<path d="M10.6667 2.44427C12.8867 2.56427 14 3.41094 14 6.54427V10.6643C14 13.4109 13.3333 14.7843 10 14.7843H6C2.66667 14.7843 2 13.4109 2 10.6643V6.54427C2 3.41094 3.11333 2.57094 5.33333 2.44427H10.6667Z" stroke="#30323D" stroke-miterlimit="10" stroke-linecap="round" stroke-linejoin="round"/>
<path d="M13.8334 11.8443H2.16669" stroke="#30323D" stroke-miterlimit="10" stroke-linecap="round" stroke-linejoin="round"/>
<path d="M7.99998 5.6109C7.17998 5.6109 6.48665 6.05757 6.48665 6.92423C6.48665 7.33757 6.67998 7.6509 6.97331 7.8509C6.56665 8.0909 6.33331 8.47757 6.33331 8.9309C6.33331 9.75757 6.96665 10.2709 7.99998 10.2709C9.02665 10.2709 9.66665 9.75757 9.66665 8.9309C9.66665 8.47757 9.43331 8.08423 9.01998 7.8509C9.31998 7.64423 9.50665 7.33757 9.50665 6.92423C9.50665 6.05757 8.81998 5.6109 7.99998 5.6109ZM7.99998 7.50423C7.65331 7.50423 7.39998 7.29757 7.39998 6.9709C7.39998 6.63757 7.65331 6.44423 7.99998 6.44423C8.34665 6.44423 8.59998 6.63757 8.59998 6.9709C8.59998 7.29757 8.34665 7.50423 7.99998 7.50423ZM7.99998 9.44423C7.55998 9.44423 7.23998 9.22423 7.23998 8.82423C7.23998 8.42423 7.55998 8.2109 7.99998 8.2109C8.43998 8.2109 8.75998 8.4309 8.75998 8.82423C8.75998 9.22423 8.43998 9.44423 7.99998 9.44423Z" fill="#E63946"/>
</svg>
