<svg width="16" height="17" viewBox="0 0 16 17" fill="none" xmlns="http://www.w3.org/2000/svg">
<path d="M11.3333 6.77776H12.6666C14 6.77776 14.6666 6.11109 14.6666 4.77776V3.44443C14.6666 2.11109 14 1.44443 12.6666 1.44443H11.3333C9.99998 1.44443 9.33331 2.11109 9.33331 3.44443V4.77776C9.33331 6.11109 9.99998 6.77776 11.3333 6.77776Z" stroke="#E63946" stroke-miterlimit="10" stroke-linecap="round" stroke-linejoin="round"/>
<path d="M3.33331 14.7778H4.66665C5.99998 14.7778 6.66665 14.1111 6.66665 12.7778V11.4444C6.66665 10.1111 5.99998 9.44443 4.66665 9.44443H3.33331C1.99998 9.44443 1.33331 10.1111 1.33331 11.4444V12.7778C1.33331 14.1111 1.99998 14.7778 3.33331 14.7778Z" stroke="#37B76C" stroke-miterlimit="10" stroke-linecap="round" stroke-linejoin="round"/>
<path d="M3.99998 6.77776C5.47274 6.77776 6.66665 5.58385 6.66665 4.11109C6.66665 2.63833 5.47274 1.44443 3.99998 1.44443C2.52722 1.44443 1.33331 2.63833 1.33331 4.11109C1.33331 5.58385 2.52722 6.77776 3.99998 6.77776Z" stroke="#30323D" stroke-miterlimit="10" stroke-linecap="round" stroke-linejoin="round"/>
<path d="M12 14.7778C13.4727 14.7778 14.6666 13.5839 14.6666 12.1111C14.6666 10.6383 13.4727 9.44443 12 9.44443C10.5272 9.44443 9.33331 10.6383 9.33331 12.1111C9.33331 13.5839 10.5272 14.7778 12 14.7778Z" stroke="#30323D" stroke-miterlimit="10" stroke-linecap="round" stroke-linejoin="round"/>
</svg>
