<svg width="16" height="17" viewBox="0 0 16 17" fill="none" xmlns="http://www.w3.org/2000/svg">
<g clip-path="url(#clip0_3220_43725)">
<path d="M1.79115 10.5411L3.06327 9.80675C3.13218 9.76697 3.21304 9.75315 3.29125 9.76779L5.79424 10.2362C5.99994 10.2747 6.18982 10.1164 6.18889 9.90711L6.17915 7.71402C6.17888 7.65444 6.19459 7.59587 6.22465 7.54442L7.4878 5.38187C7.55354 5.26932 7.54764 5.12878 7.47272 5.02213L5.34592 1.99485M12.6668 3.35043C9.00011 5.11109 11 7.44442 11.6668 7.77775C12.9181 8.40333 14.6584 8.44438 14.6584 8.44438C14.6638 8.33395 14.6666 8.22283 14.6666 8.11105C14.6666 4.42916 11.6819 1.4444 7.99997 1.4444C4.31808 1.4444 1.33331 4.42916 1.33331 8.11105C1.33331 11.7929 4.31808 14.7777 7.99997 14.7777C8.11174 14.7777 8.22288 14.775 8.3333 14.7695" stroke="#30323D" stroke-width="0.999998" stroke-linecap="round" stroke-linejoin="round"/>
<path d="M12.6577 11.142L12.7822 11.3953C12.8444 11.5198 13 11.6354 13.1377 11.662L13.3066 11.6887C13.8133 11.7731 13.9333 12.1465 13.5688 12.5153L13.4133 12.6709C13.3111 12.7776 13.2533 12.982 13.2844 13.1242L13.3066 13.2176C13.4444 13.8309 13.12 14.0665 12.5866 13.7465L12.4711 13.6798C12.3333 13.5998 12.1111 13.5998 11.9733 13.6798L11.8577 13.7465C11.32 14.0709 10.9955 13.8309 11.1377 13.2176L11.16 13.1242C11.1911 12.982 11.1333 12.7776 11.0311 12.6709L10.8755 12.5153C10.5111 12.1465 10.6311 11.7731 11.1377 11.6887L11.3066 11.662C11.44 11.6398 11.6 11.5198 11.6622 11.3953L11.7866 11.142C12.0266 10.6576 12.4177 10.6576 12.6577 11.142Z" stroke="#37B76C" stroke-width="0.666666" stroke-linecap="round" stroke-linejoin="round"/>
</g>
<defs>
<clipPath id="clip0_3220_43725">
<rect width="16" height="16" fill="white" transform="translate(0 0.111084)"/>
</clipPath>
</defs>
</svg>
