<svg width="16" height="17" viewBox="0 0 16 17" fill="none" xmlns="http://www.w3.org/2000/svg">
<path d="M14.6668 8.77779V6.11111C14.6668 2.77777 13.3334 1.44443 10.0001 1.44443H6.00006C2.66671 1.44443 1.33337 2.77777 1.33337 6.11111V10.1111C1.33337 13.4445 2.66671 14.7778 6.00006 14.7778H8.66674" stroke="#30323D" stroke-width="1.21428" stroke-linecap="round" stroke-linejoin="round"/>
<path d="M4.88666 9.77113L6.47333 7.71111C6.7 7.41778 7.12001 7.36445 7.41334 7.59112L8.63336 8.55112C8.92669 8.77779 9.34667 8.72446 9.57334 8.43779L11.1134 6.45111" stroke="#30323D" stroke-width="1.21428" stroke-linecap="round" stroke-linejoin="round"/>
<path d="M12.9867 10.6578L13.1734 11.0378C13.2667 11.2245 13.5 11.3978 13.7067 11.4378L13.9601 11.4778C14.7201 11.6045 14.9001 12.1645 14.3534 12.7178L14.12 12.9511C13.9667 13.1111 13.8801 13.4178 13.9267 13.6311L13.9601 13.7711C14.1667 14.6911 13.6801 15.0445 12.8801 14.5645L12.7067 14.4645C12.5 14.3445 12.1667 14.3445 11.96 14.4645L11.7867 14.5645C10.98 15.0511 10.4934 14.6911 10.7067 13.7711L10.74 13.6311C10.7867 13.4178 10.7 13.1111 10.5467 12.9511L10.3134 12.7178C9.7667 12.1645 9.9467 11.6045 10.7067 11.4778L10.96 11.4378C11.16 11.4045 11.4 11.2245 11.4934 11.0378L11.68 10.6578C12.04 9.93113 12.6267 9.93113 12.9867 10.6578Z" stroke="#37B76C" stroke-width="1.21428" stroke-linecap="round" stroke-linejoin="round"/>
</svg>
