<svg width="16" height="17" viewBox="0 0 16 17" fill="none" xmlns="http://www.w3.org/2000/svg">
<path d="M11.3333 12.3978H8.66665L5.69997 14.3711C5.25997 14.6644 4.66665 14.3511 4.66665 13.8178V12.3978C2.66665 12.3978 1.33331 11.0645 1.33331 9.06445V5.06441C1.33331 3.06441 2.66665 1.73108 4.66665 1.73108H11.3333C13.3333 1.73108 14.6666 3.06441 14.6666 5.06441V9.06445C14.6666 11.0645 13.3333 12.3978 11.3333 12.3978Z" stroke="#30323D" stroke-miterlimit="10" stroke-linecap="round" stroke-linejoin="round"/>
<path d="M8.00002 7.68439V7.54441C8.00002 7.09108 8.28004 6.85107 8.56004 6.65774C8.83337 6.47107 9.10667 6.23108 9.10667 5.79108C9.10667 5.17774 8.61335 4.68439 8.00002 4.68439C7.38669 4.68439 6.89337 5.17774 6.89337 5.79108" stroke="#2BB8D6" stroke-linecap="round" stroke-linejoin="round"/>
<path d="M7.99702 9.27773H8.00302" stroke="#2BB8D6" stroke-linecap="round" stroke-linejoin="round"/>
</svg>
