<svg width="16" height="17" viewBox="0 0 16 17" fill="none" xmlns="http://www.w3.org/2000/svg">
<path d="M14.6666 8.03785V8.63119C14.6666 11.0045 14.0733 11.5912 11.7066 11.5912H4.29331C1.92665 11.5912 1.33331 10.9979 1.33331 8.63119V4.40452C1.33331 2.03785 1.92665 1.44452 4.29331 1.44452H5.33331" stroke="#30323D" stroke-linecap="round" stroke-linejoin="round"/>
<path d="M8 11.5911V14.7778" stroke="#30323D" stroke-linecap="round" stroke-linejoin="round"/>
<path d="M1.33331 8.77783H14.6666" stroke="#30323D" stroke-linecap="round" stroke-linejoin="round"/>
<path d="M5 14.7778H11" stroke="#30323D" stroke-linecap="round" stroke-linejoin="round"/>
<path d="M11.9066 6.35784H8.73326C7.81326 6.35784 7.50659 5.74451 7.50659 5.13117V2.78451C7.50659 2.05117 8.10659 1.45117 8.83993 1.45117H11.9066C12.5866 1.45117 13.1333 1.99784 13.1333 2.67784V5.13117C13.1333 5.81117 12.5866 6.35784 11.9066 6.35784Z" stroke="#2BB8D6" stroke-linecap="round" stroke-linejoin="round"/>
<path d="M13.9399 5.39115L13.1332 4.82448V2.98448L13.9399 2.41782C14.3399 2.14448 14.6666 2.31115 14.6666 2.79782V5.01782C14.6666 5.50448 14.3399 5.67115 13.9399 5.39115Z" stroke="#2BB8D6" stroke-linecap="round" stroke-linejoin="round"/>
</svg>
