<svg width="16" height="17" viewBox="0 0 16 17" fill="none" xmlns="http://www.w3.org/2000/svg">
<path d="M14.6666 10.1111V6.11112C14.6666 2.77779 13.3333 1.44446 9.99998 1.44446H5.99998C2.66665 1.44446 1.33331 2.77779 1.33331 6.11112V10.1111C1.33331 13.4445 2.66665 14.7778 5.99998 14.7778H9.99998C13.3333 14.7778 14.6666 13.4445 14.6666 10.1111Z" stroke="white" stroke-linecap="round" stroke-linejoin="round"/>
<path d="M1.67999 4.8511H14.32" stroke="white" stroke-linecap="round" stroke-linejoin="round"/>
<path d="M5.67999 1.5177V4.7577" stroke="white" stroke-linecap="round" stroke-linejoin="round"/>
<path d="M10.3201 1.5177V4.4577" stroke="white" stroke-linecap="round" stroke-linejoin="round"/>
<path d="M6 9.39688V8.59688C6 7.57021 6.72667 7.15021 7.61333 7.66355L8.30667 8.06355L9 8.46355C9.88667 8.97688 9.88667 9.81688 9 10.3302L8.30667 10.7302L7.61333 11.1302C6.72667 11.6435 6 11.2235 6 10.1969V9.39688V9.39688Z" stroke="white" stroke-miterlimit="10" stroke-linecap="round" stroke-linejoin="round"/>
</svg>
